Coordinates
version=1
nRows=26
nColumns=24
inDegrees=yes

Units are S.I. units (second, meters, Newtons, ...)
Angles are in degrees.

endheader
time	pelvis_tilt	pelvis_list	pelvis_rotation	pelvis_tx	pelvis_ty	pelvis_tz	hip_flexion_r	hip_adduction_r	hip_rotation_r	knee_angle_r	ankle_angle_r	subtalar_angle_r	mtp_angle_r	hip_flexion_l	hip_adduction_l	hip_rotation_l	knee_angle_l	ankle_angle_l	subtalar_angle_l	mtp_angle_l	lumbar_extension	lumbar_bending	lumbar_rotation
      2.79500000	    -12.47509604	      9.71455391	     -2.44671170	     -2.36370170	     -0.04029063	     -0.28174195	     15.47096375	    -15.58447373	     -8.12013379	    -59.29957415	    -26.22830701	    -20.61278712	     10.98491204	     31.80573974	     10.20953548	     -7.05285489	    -22.66535535	     -3.78489918	    -15.58155646	      0.35560986	      9.45177052	     -9.61136789	      2.77386007
      2.80000000	    -12.38525886	      9.68183397	     -2.27239922	     -2.35626911	     -0.03907227	     -0.28248340	     16.42123296	    -15.49440492	     -7.96049517	    -60.37457120	    -25.39802909	    -21.28951628	     11.11816497	     31.06801788	     10.39687037	     -6.76923516	    -22.43208188	     -3.38020193	    -15.49545584	      0.45644631	      9.28556191	     -9.62258714	      2.51875811
      2.80500000	    -12.40383600	      9.60414479	     -2.12749387	     -2.34884522	     -0.03794765	     -0.28313299	     17.49635561	    -15.32880656	     -7.76602955	    -61.36321976	    -24.38468941	    -21.59749321	     11.29627951	     30.46281802	     10.48367619	     -6.62269357	    -22.23170204	     -2.89305442	    -15.26960576	      0.58220855	      9.24724792	     -9.57669597	      2.24683143
      2.81000000	    -12.36830836	      9.44530766	     -2.03032870	     -2.34151060	     -0.03667770	     -0.28376615	     18.50010039	    -15.06262705	     -7.58608234	    -62.20612480	    -23.40510390	    -21.72915232	     11.54515558	     29.78547543	     10.48670148	     -6.37120307	    -22.01102827	     -2.45403391	    -15.14125234	      0.67778561	      9.14318527	     -9.43093239	      2.04477624
      2.81500000	    -12.32810645	      9.29150937	     -1.95250951	     -2.33418574	     -0.03538069	     -0.28437406	     19.48979174	    -14.80320031	     -7.41647703	    -62.93595593	    -22.39657236	    -21.63276845	     12.01613769	     29.09303213	     10.48441258	     -6.12859145	    -21.76421867	     -2.05168522	    -15.03090021	      0.73443150	      9.04116173	     -9.28503555	      1.85657220
      2.82000000	    -12.27004183	      9.12594664	     -1.93494550	     -2.32691776	     -0.03404159	     -0.28497765	     20.45707426	    -14.51808763	     -7.20022212	    -63.53005514	    -21.45483228	    -21.35181212	     13.32488760	     28.37527372	     10.45606053	     -5.89330895	    -21.48865954	     -1.71715232	    -15.05802310	      0.63203239	      8.92639689	     -9.10380247	      1.75563237
      2.82500000	    -12.19826005	      8.84926556	     -1.83486189	     -2.31967170	     -0.03261198	     -0.28566569	     21.31129957	    -14.13646130	     -7.10259285	    -63.89531441	    -20.93264368	    -21.18622170	     16.23117063	     27.63873508	     10.34971872	     -5.52412433	    -21.24696298	     -1.26047041	    -14.91312363	      0.39171927	      8.77608163	     -8.82104544	      1.48698746
      2.83000000	    -12.12055942	      8.63236814	     -1.84000063	     -2.31248636	     -0.03122160	     -0.28617923	     22.22013022	    -13.77868972	     -6.93066397	    -64.27852026	    -19.91379338	    -20.56794211	     17.19978183	     26.89086026	     10.24764050	     -5.29002307	    -20.94732449	     -0.95459339	    -14.91431048	      0.37548968	      8.63797413	     -8.58543415	      1.38249578
      2.83500000	    -12.04755415	      8.33360790	     -1.75168234	     -2.30530845	     -0.02978891	     -0.28685089	     23.03110064	    -13.37187583	     -6.87501158	    -64.42734486	    -19.32954363	    -20.14569902	     20.16405876	     26.14149491	     10.10969411	     -4.90888636	    -20.66706553	     -0.57136269	    -14.84671920	      0.08916908	      8.49010964	     -8.27268824	      1.14846964
      2.84000000	    -11.97340900	      8.05225247	     -1.71082913	     -2.29818809	     -0.02840358	     -0.28736378	     23.87009708	    -12.95583346	     -6.82258342	    -64.59625832	    -18.27232342	    -19.34302068	     20.76955112	     25.39362663	      9.94336710	     -4.64419205	    -20.36496847	     -0.23292684	    -14.73900123	      0.13825685	      8.34554821	     -7.97900237	      0.97840292
      2.84500000	    -11.88768829	      7.78474499	     -1.65466335	     -2.29105713	     -0.02702009	     -0.28791811	     24.65994342	    -12.56351215	     -6.78552030	    -64.65202545	    -17.22718113	    -18.46497840	     21.65816256	     24.61148032	      9.80575437	     -4.33064462	    -20.01548505	      0.03396227	    -14.72736662	      0.10946201	      8.19184788	     -7.69718805	      0.81171336
      2.85000000	    -11.78249187	      7.50935078	     -1.59838148	     -2.28398985	     -0.02559761	     -0.28859031	     25.36824115	    -12.16545986	     -6.72201448	    -64.43456783	    -16.90302445	    -18.13972050	     25.91855215	     23.80234070	      9.67891924	     -3.97981914	    -19.65040653	      0.32412097	    -14.79361444	     -0.51313718	      8.00697919	     -7.39017181	      0.63281512
      2.85500000	    -11.70145628	      7.22638773	     -1.53616099	     -2.27690390	     -0.02428208	     -0.28909253	     26.11003542	    -11.74411394	     -6.73139882	    -64.29997911	    -15.87936536	    -17.29790965	     26.44762295	     23.02116137	      9.50223332	     -3.74116847	    -19.28037463	      0.61471683	    -14.68621794	     -0.47932423	      7.85809163	     -7.09613149	      0.46807042
      2.86000000	    -11.60585515	      6.94328490	     -1.45593614	     -2.26985906	     -0.02295926	     -0.28961423	     26.79636957	    -11.32169649	     -6.75648995	    -64.04844726	    -14.91484105	    -16.52447076	     27.09426268	     22.21797572	      9.33223922	     -3.49552850	    -18.88194088	      0.81700775	    -14.65522537	     -0.50283260	      7.68074527	     -6.80060670	      0.26436956
      2.86500000	    -11.47366090	      6.70195232	     -1.37166008	     -2.26277913	     -0.02165904	     -0.29029687	     27.39597324	    -10.97023801	     -6.77250505	    -63.58700748	    -14.45877645	    -16.20983298	     30.27104112	     21.34551554	      9.23224737	     -3.16316693	    -18.43746169	      1.07276829	    -14.69109105	     -0.96486179	      7.47445866	     -6.52940358	      0.08826930
      2.87000000	    -11.40025170	      6.42556429	     -1.28047900	     -2.25571870	     -0.02049128	     -0.29079908	     28.05297812	    -10.55340551	     -6.83125757	    -63.16676992	    -13.55534173	    -15.55888568	     30.63512914	     20.55712388	      9.05243752	     -2.95785567	    -18.01722679	      1.33553481	    -14.57092683	     -0.93052258	      7.32938365	     -6.24655665	     -0.07459294
      2.87500000	    -11.24719866	      6.18693551	     -1.20894924	     -2.24864704	     -0.01927091	     -0.29133669	     28.59257207	    -10.17487810	     -6.86486873	    -62.62753728	    -12.77618600	    -15.04189024	     31.34886061	     19.65217078	      8.92238542	     -2.71665724	    -17.52696528	      1.48352218	    -14.61238711	     -1.03309311	      7.10050750	     -5.98914899	     -0.23111088
      2.88000000	    -11.20591516	      5.90201342	     -1.05208001	     -2.24161513	     -0.01826933	     -0.29192534	     29.20778173	     -9.78017763	     -7.00781918	    -62.01753018	    -12.01864539	    -14.63352922	     31.69938218	     18.91041521	      8.74496802	     -2.47782619	    -17.12054273	      1.74072070	    -14.48980771	     -1.02275646	      6.97874551	     -5.69794036	     -0.46352814
      2.88500000	    -11.11530651	      5.64159768	     -0.92377459	     -2.23457613	     -0.01726615	     -0.29249020	     29.74703601	     -9.39997664	     -7.11688054	    -61.31675673	    -11.32957459	    -14.28403129	     32.02818960	     18.09821996	      8.58775821	     -2.23625128	    -16.67157153	      1.93068702	    -14.45776920	     -1.06663064	      6.80770921	     -5.42517426	     -0.66708202
      2.89000000	    -11.03224741	      5.38468331	     -0.78669639	     -2.22755151	     -0.01634561	     -0.29306234	     30.26616138	     -9.02930648	     -7.23952708	    -60.53134375	    -10.73333706	    -14.03626195	     32.29706323	     17.29756107	      8.43271930	     -1.97676830	    -16.22441642	      2.11595807	    -14.44517782	     -1.13960342	      6.64266424	     -5.15508276	     -0.87238790
      2.89500000	    -10.95983247	      5.13246299	     -0.64197166	     -2.22054200	     -0.01550978	     -0.29363006	     30.76924910	     -8.66785813	     -7.36961054	    -59.66535510	    -10.22639981	    -13.86802423	     32.49079366	     16.51421736	      8.27846741	     -1.71019705	    -15.78307741	      2.29562311	    -14.44218823	     -1.24107651	      6.48688880	     -4.88946843	     -1.08519773
      2.90000000	    -10.89547244	      4.88866258	     -0.49049030	     -2.21354298	     -0.01476112	     -0.29419345	     31.25343249	     -8.32186740	     -7.50651310	    -58.72151982	     -9.80674137	    -13.76536898	     32.60733134	     15.74404329	      8.12891121	     -1.43753455	    -15.34563009	      2.47384793	    -14.44494048	     -1.37088338	      6.33892802	     -4.63213555	     -1.30090133
      2.90500000	    -10.83989286	      4.65675403	     -0.33523458	     -2.20655100	     -0.01409923	     -0.29474659	     31.72002461	     -7.99368676	     -7.64474096	    -57.70256019	     -9.47146291	    -13.71136776	     32.64669648	     14.98663251	      7.98572056	     -1.16699461	    -14.90999062	      2.65203158	    -14.44573395	     -1.52647194	      6.20031491	     -4.38645191	     -1.51799418
      2.91000000	    -10.81235779	      4.43860971	     -0.18531189	     -2.19956596	     -0.01353163	     -0.29526889	     32.19476184	     -7.67704711	     -7.76300215	    -56.61315585	     -9.23210383	    -13.67019319	     32.61288499	     14.26391285	      7.84516590	     -0.92844186	    -14.47386032	      2.81044989	    -14.43228520	     -1.67570811	      6.09319570	     -4.15296521	     -1.73675823
      2.91500000	    -10.77719738	      4.23612623	     -0.02481554	     -2.19257326	     -0.01304354	     -0.29579569	     32.62658662	     -7.39181950	     -7.89674206	    -55.44914330	     -9.03901244	    -13.65393053	     32.51227520	     13.53420629	      7.71748940	     -0.69245454	    -14.04016124	      2.98574593	    -14.40451503	     -1.82939667	      5.98064955	     -3.93736261	     -1.95000804
      2.92000000	    -10.73482352	      4.04919755	      0.13988128	     -2.18558541	     -0.01263063	     -0.29631342	     33.01940844	     -7.13192921	     -8.03550167	    -54.21527425	     -8.88943097	    -13.65228402	     32.32571667	     12.79740221	      7.59897935	     -0.46996037	    -13.60647702	      3.17725163	    -14.34454866	     -1.99675074	      5.85932902	     -3.73514800	     -2.16428274
